<svg width="28" height="28" viewBox="0 0 28 28" fill="none" xmlns="http://www.w3.org/2000/svg">
<path d="M11.25 2.16506C12.9517 1.18258 15.0483 1.18258 16.75 2.16506L22.8744 5.70096C24.5761 6.68344 25.6244 8.49914 25.6244 10.4641V17.5359C25.6244 19.5009 24.5761 21.3166 22.8744 22.299L16.75 25.8349C15.0483 26.8174 12.9517 26.8174 11.25 25.8349L5.12565 22.299C3.42394 21.3166 2.37564 19.5009 2.37564 17.5359V10.4641C2.37564 8.49914 3.42394 6.68344 5.12564 5.70096L11.25 2.16506Z" stroke="white"/>
<path d="M8.75 12.3345V16.625C8.75 17.4534 9.42157 18.125 10.25 18.125H17.75C18.5784 18.125 19.25 17.4534 19.25 16.625V12.3345L14.7861 15.0815C14.304 15.3782 13.696 15.3782 13.2139 15.0815L8.75 12.3345Z" fill="#FF8C00"/>
<path d="M19.25 11.4539V11.375C19.25 10.5466 18.5784 9.875 17.75 9.875H10.25C9.42157 9.875 8.75 10.5466 8.75 11.375V11.4539L13.6069 14.4428C13.848 14.5911 14.152 14.5911 14.3931 14.4428L19.25 11.4539Z" fill="#FF8C00"/>
</svg>
