<svg width="28" height="28" viewBox="0 0 28 28" fill="none" xmlns="http://www.w3.org/2000/svg">
<path d="M11.25 2.16506C12.9517 1.18258 15.0483 1.18258 16.75 2.16506L22.8744 5.70096C24.5761 6.68344 25.6244 8.49914 25.6244 10.4641V17.5359C25.6244 19.5009 24.5761 21.3166 22.8744 22.299L16.75 25.8349C15.0483 26.8174 12.9517 26.8174 11.25 25.8349L5.12565 22.299C3.42394 21.3166 2.37564 19.5009 2.37564 17.5359V10.4641C2.37564 8.49914 3.42394 6.68344 5.12564 5.70096L11.25 2.16506Z" stroke="white"/>
<g clip-path="url(#clip0_1_55)">
<path fill-rule="evenodd" clip-rule="evenodd" d="M8.75 10.25C8.75 9.42157 9.42157 8.75 10.25 8.75H10.9358C11.366 8.75 11.741 9.04278 11.8453 9.46012L12.3982 11.6717C12.4897 12.0376 12.353 12.4228 12.0512 12.6491L11.4044 13.1342C11.3372 13.1846 11.3226 13.2583 11.3415 13.3098C11.9093 14.8597 13.1403 16.0907 14.6902 16.6585C14.7417 16.6774 14.8154 16.6628 14.8658 16.5956L15.3509 15.9488C15.5772 15.647 15.9623 15.5103 16.3283 15.6018L18.5399 16.1547C18.9572 16.259 19.25 16.634 19.25 17.0642V17.75C19.25 18.5784 18.5784 19.25 17.75 19.25H16.625C12.2758 19.25 8.75 15.7242 8.75 11.375V10.25Z" fill="#FF8C00"/>
</g>
<defs>
<clipPath id="clip0_1_55">
<rect width="12" height="12" fill="white" transform="translate(8 8)"/>
</clipPath>
</defs>
</svg>
