<svg width="40" height="40" viewBox="0 0 40 40" fill="none" xmlns="http://www.w3.org/2000/svg">
<path d="M16 2.3094C18.4752 0.880338 21.5248 0.880338 24 2.3094L33.3205 7.6906C35.7957 9.11966 37.3205 11.7607 37.3205 14.6188V25.3812C37.3205 28.2393 35.7957 30.8803 33.3205 32.3094L24 37.6906C21.5248 39.1197 18.4752 39.1197 16 37.6906L6.67949 32.3094C4.20428 30.8803 2.67949 28.2393 2.67949 25.3812V14.6188C2.67949 11.7607 4.20428 9.11966 6.67949 7.6906L16 2.3094Z" fill="#001B21"/>
<path d="M21.5067 12.8975C21.5067 12.4026 21.1196 12 20.6438 12H19.3562C18.8803 12 18.4932 12.4026 18.4932 12.8975V14.2393H21.5067V12.8975ZM20.1264 17.615L25.1282 18.9744V15.6196C25.1282 15.4319 24.9814 15.2792 24.8009 15.2792H15.1991C15.0186 15.2792 14.8718 15.4319 14.8718 15.6196V18.9744L19.8736 17.615C19.9565 17.5926 20.0435 17.5926 20.1264 17.615Z" fill="#FF8C00"/>
<path d="M27.5312 26.8917C27.0138 26.8917 26.7805 26.7543 26.485 26.5804C26.3463 26.4987 26.2 26.4126 26.0254 26.3393C25.7831 26.2374 25.4861 26.1602 25.0791 26.1535L26.7953 21.0463C26.8333 20.925 26.803 20.8241 26.7813 20.7745C26.7595 20.7245 26.7069 20.6356 26.5996 20.6025L19.9999 18.5641L13.4003 20.6025C13.293 20.6356 13.2404 20.7245 13.2186 20.7745C13.197 20.8241 13.1666 20.9252 13.2047 21.0465L14.9171 26.1535C14.5102 26.1608 14.2136 26.2385 13.9714 26.3407C13.7983 26.4137 13.6529 26.4993 13.5151 26.5804C13.2196 26.7543 12.9862 26.8918 12.4687 26.8918C12.2099 26.8918 12 27.1398 12 27.4458C12 27.7519 12.2099 28 12.4687 28C13.2066 28 13.5925 27.7729 13.9329 27.5725C14.0656 27.4944 14.1859 27.4239 14.3248 27.3696C14.4954 27.303 14.6941 27.2612 14.9793 27.2612C15.0444 27.2612 15.1049 27.2634 15.1617 27.2676C15.5564 27.2964 15.7673 27.4205 16.0256 27.5725C16.3661 27.7729 16.7519 28 17.4898 28C18.2276 28 18.6135 27.7729 18.9539 27.5725C19.2494 27.3986 19.4828 27.2612 20.0002 27.2612C20.5175 27.2612 20.7509 27.3986 21.0464 27.5725C21.3868 27.7729 21.7727 28 22.5105 28C23.2484 28 23.6342 27.7729 23.9746 27.5725C24.2338 27.42 24.4453 27.2956 24.8423 27.2673C24.9018 27.2631 24.9613 27.2611 25.0209 27.2612C25.303 27.2612 25.5004 27.3022 25.6697 27.3676C25.811 27.4221 25.9327 27.4934 26.0671 27.5725C26.4075 27.7729 26.7934 28 27.5312 28C27.7901 28 28 27.7519 28 27.4459C28 27.1399 27.7901 26.8917 27.5312 26.8917ZM15.6663 21.3998L19.8814 20.0979C19.9591 20.0739 20.0407 20.0739 20.1185 20.0979L24.3336 21.3998C24.584 21.4771 24.7341 21.7799 24.6686 22.076C24.6136 22.3251 24.4235 22.4901 24.2154 22.4901C24.1753 22.4901 24.1354 22.484 24.0966 22.472L19.9999 21.2067L15.9033 22.472C15.6528 22.5494 15.3967 22.3721 15.3313 22.076C15.2658 21.7799 15.4158 21.4771 15.6663 21.3998Z" fill="#FF8C00"/>
</svg>
