<svg width="111" height="22" viewBox="0 0 111 22" fill="none" xmlns="http://www.w3.org/2000/svg">
<path d="M9.47 21.8C7.81 21.8 6.33 21.44 5.03 20.72C3.75 19.98 2.74 18.97 2 17.69C1.26 16.41 0.89 14.96 0.89 13.34V0.41H4.97V13.46C4.97 14.4 5.16 15.21 5.54 15.89C5.94 16.57 6.48 17.1 7.16 17.48C7.86 17.84 8.63 18.02 9.47 18.02C10.33 18.02 11.09 17.84 11.75 17.48C12.41 17.1 12.93 16.57 13.31 15.89C13.71 15.21 13.91 14.41 13.91 13.49V0.41H18.02V13.37C18.02 14.99 17.65 16.44 16.91 17.72C16.17 18.98 15.16 19.98 13.88 20.72C12.62 21.44 11.15 21.8 9.47 21.8ZM22.0487 21.5V0.41H24.9287L33.4787 14.09H31.8287L40.3487 0.41H43.2287V21.5H39.1787V7.4L39.9587 7.64L34.0187 17.18H31.2587L25.3187 7.64L26.1287 7.4V21.5H22.0487ZM47.537 21.5V0.41H51.617V21.5H47.537ZM50.537 21.5V17.9H62.207V21.5H50.537ZM50.537 12.47V8.99H61.157V12.47H50.537ZM50.537 4.01V0.41H62.057V4.01H50.537ZM65.5838 21.5V0.41H69.6638V21.5H65.5838ZM68.5838 21.5V17.9H80.2538V21.5H68.5838ZM68.5838 12.47V8.99H79.2038V12.47H68.5838ZM68.5838 4.01V0.41H80.1038V4.01H68.5838ZM88.9707 21.5L82.1307 0.41H86.1507L91.2207 16.64H89.8707L94.8507 0.41H97.8807L102.861 16.64H101.481L106.581 0.41H110.601L103.731 21.5H100.701L95.6907 5.3H97.0107L92.0307 21.5H88.9707Z" fill="#FF8C00"/>
</svg>
